<svg id="SvgjsSvg1513" width="1359.5" height="904" xmlns="http://www.w3.org/2000/svg" version="1.1" xmlns:xlink="http://www.w3.org/1999/xlink" xmlns:svgjs="http://svgjs.com/svgjs"><defs id="SvgjsDefs1514"><marker id="SvgjsMarker1536" markerWidth="14" markerHeight="10" refX="10" refY="5" viewBox="0 0 14 10" orient="auto" markerUnits="userSpaceOnUse" stroke-dasharray="0,0"><path id="SvgjsPath1537" d="M0,0 L14,5 L0,10 L0,0" fill="#323232" stroke="#323232" stroke-width="1"></path></marker><marker id="SvgjsMarker1548" markerWidth="14" markerHeight="10" refX="10" refY="5" viewBox="0 0 14 10" orient="auto" markerUnits="userSpaceOnUse" stroke-dasharray="0,0"><path id="SvgjsPath1549" d="M0,0 L14,5 L0,10 L0,0" fill="#323232" stroke="#323232" stroke-width="1"></path></marker><marker id="SvgjsMarker1558" markerWidth="14" markerHeight="10" refX="10" refY="5" viewBox="0 0 14 10" orient="auto" markerUnits="userSpaceOnUse" stroke-dasharray="0,0"><path id="SvgjsPath1559" d="M0,0 L14,5 L0,10 L0,0" fill="#323232" stroke="#323232" stroke-width="1"></path></marker><marker id="SvgjsMarker1570" markerWidth="14" markerHeight="10" refX="10" refY="5" viewBox="0 0 14 10" orient="auto" markerUnits="userSpaceOnUse" stroke-dasharray="0,0"><path id="SvgjsPath1571" d="M0,0 L14,5 L0,10 L0,0" fill="#323232" stroke="#323232" stroke-width="1"></path></marker><marker id="SvgjsMarker1588" markerWidth="14" markerHeight="10" refX="10" refY="5" viewBox="0 0 14 10" orient="auto" markerUnits="userSpaceOnUse" stroke-dasharray="0,0"><path id="SvgjsPath1589" d="M0,0 L14,5 L0,10 L0,0" fill="#323232" stroke="#323232" stroke-width="1"></path></marker><marker id="SvgjsMarker1598" markerWidth="14" markerHeight="10" refX="10" refY="5" viewBox="0 0 14 10" orient="auto" markerUnits="userSpaceOnUse" stroke-dasharray="0,0"><path id="SvgjsPath1599" d="M0,0 L14,5 L0,10 L0,0" fill="#323232" stroke="#323232" stroke-width="1"></path></marker><marker id="SvgjsMarker1616" markerWidth="14" markerHeight="10" refX="10" refY="5" viewBox="0 0 14 10" orient="auto" markerUnits="userSpaceOnUse" stroke-dasharray="0,0"><path id="SvgjsPath1617" d="M0,0 L14,5 L0,10 L0,0" fill="#323232" stroke="#323232" stroke-width="1"></path></marker><marker id="SvgjsMarker1620" markerWidth="14" markerHeight="10" refX="10" refY="5" viewBox="0 0 14 10" orient="auto" markerUnits="userSpaceOnUse" stroke-dasharray="0,0"><path id="SvgjsPath1621" d="M0,0 L14,5 L0,10 L0,0" fill="#323232" stroke="#323232" stroke-width="1"></path></marker><marker id="SvgjsMarker1634" markerWidth="14" markerHeight="10" refX="10" refY="5" viewBox="0 0 14 10" orient="auto" markerUnits="userSpaceOnUse" stroke-dasharray="0,0"><path id="SvgjsPath1635" d="M0,0 L14,5 L0,10 L0,0" fill="#323232" stroke="#323232" stroke-width="1"></path></marker><marker id="SvgjsMarker1648" markerWidth="14" markerHeight="10" refX="10" refY="5" viewBox="0 0 14 10" orient="auto" markerUnits="userSpaceOnUse" stroke-dasharray="0,0"><path id="SvgjsPath1649" d="M0,0 L14,5 L0,10 L0,0" fill="#323232" stroke="#323232" stroke-width="1"></path></marker><marker id="SvgjsMarker1652" markerWidth="14" markerHeight="10" refX="10" refY="5" viewBox="0 0 14 10" orient="auto" markerUnits="userSpaceOnUse" stroke-dasharray="0,0"><path id="SvgjsPath1653" d="M0,0 L14,5 L0,10 L0,0" fill="#323232" stroke="#323232" stroke-width="1"></path></marker><marker id="SvgjsMarker1664" markerWidth="14" markerHeight="10" refX="10" refY="5" viewBox="0 0 14 10" orient="auto" markerUnits="userSpaceOnUse" stroke-dasharray="0,0"><path id="SvgjsPath1665" d="M0,0 L14,5 L0,10 L0,0" fill="#323232" stroke="#323232" stroke-width="1"></path></marker><marker id="SvgjsMarker1674" markerWidth="14" markerHeight="10" refX="10" refY="5" viewBox="0 0 14 10" orient="auto" markerUnits="userSpaceOnUse" stroke-dasharray="0,0"><path id="SvgjsPath1675" d="M0,0 L14,5 L0,10 L0,0" fill="#323232" stroke="#323232" stroke-width="1"></path></marker><marker id="SvgjsMarker1678" markerWidth="14" markerHeight="10" refX="10" refY="5" viewBox="0 0 14 10" orient="auto" markerUnits="userSpaceOnUse" stroke-dasharray="0,0"><path id="SvgjsPath1679" d="M0,0 L14,5 L0,10 L0,0" fill="#323232" stroke="#323232" stroke-width="1"></path></marker><marker id="SvgjsMarker1690" markerWidth="14" markerHeight="10" refX="10" refY="5" viewBox="0 0 14 10" orient="auto" markerUnits="userSpaceOnUse" stroke-dasharray="0,0"><path id="SvgjsPath1691" d="M0,0 L14,5 L0,10 L0,0" fill="#323232" stroke="#323232" stroke-width="1"></path></marker><marker id="SvgjsMarker1704" markerWidth="14" markerHeight="10" refX="10" refY="5" viewBox="0 0 14 10" orient="auto" markerUnits="userSpaceOnUse" stroke-dasharray="0,0"><path id="SvgjsPath1705" d="M0,0 L14,5 L0,10 L0,0" fill="#323232" stroke="#323232" stroke-width="1"></path></marker><marker id="SvgjsMarker1720" markerWidth="14" markerHeight="10" refX="10" refY="5" viewBox="0 0 14 10" orient="auto" markerUnits="userSpaceOnUse" stroke-dasharray="0,0"><path id="SvgjsPath1721" d="M0,0 L14,5 L0,10 L0,0" fill="#323232" stroke="#323232" stroke-width="1"></path></marker><marker id="SvgjsMarker1730" markerWidth="14" markerHeight="10" refX="10" refY="5" viewBox="0 0 14 10" orient="auto" markerUnits="userSpaceOnUse" stroke-dasharray="0,0"><path id="SvgjsPath1731" d="M0,0 L14,5 L0,10 L0,0" fill="#323232" stroke="#323232" stroke-width="1"></path></marker></defs><rect id="svgbackgroundid" width="1359.5" height="904" fill="#ffffff"></rect><g id="SvgjsG1516" transform="translate(260,130)"><path id="SvgjsPath1517" d="M 0 0L 455 0L 455 485L 0 485Z" stroke="rgba(50,50,50,1)" stroke-width="2" fill-opacity="1" fill="#ffffff"></path><g id="SvgjsG1518"><text id="SvgjsText1519" font-family="微软雅黑" text-anchor="start" font-size="13px" width="435px" fill="#323232" font-weight="400" align="middle" lineHeight="125%" anchor="start" family="微软雅黑" size="13px" weight="400" font-style="" opacity="1" y="231.875" transform="rotate(0)"><tspan id="SvgjsTspan1520" dy="16" x="10"><tspan id="SvgjsTspan1521" style="text-decoration:;">初始化</tspan></tspan></text></g></g><g id="SvgjsG1522" transform="translate(329,164)"><path id="SvgjsPath1523" d="M 0 0L 295 0L 295 133.25L 0 133.25Z" stroke="rgba(50,50,50,1)" stroke-width="2" fill-opacity="1" fill="#b2ebf2"></path><g id="SvgjsG1524"><text id="SvgjsText1525" font-family="微软雅黑" text-anchor="start" font-size="13px" width="275px" fill="#323232" font-weight="400" align="middle" lineHeight="125%" anchor="start" family="微软雅黑" size="13px" weight="400" font-style="" opacity="1" y="56" transform="rotate(0)"><tspan id="SvgjsTspan1526" dy="16" x="10"><tspan id="SvgjsTspan1527" style="text-decoration:;">属性赋值</tspan></tspan></text></g></g><g id="SvgjsG1528" transform="translate(260,25)"><path id="SvgjsPath1529" d="M 0 0L 455 0L 455 70L 0 70Z" stroke="rgba(50,50,50,1)" stroke-width="2" fill-opacity="1" fill="#ffffff"></path><g id="SvgjsG1530"><text id="SvgjsText1531" font-family="微软雅黑" text-anchor="middle" font-size="13px" width="435px" fill="#323232" font-weight="400" align="middle" lineHeight="125%" anchor="middle" family="微软雅黑" size="13px" weight="400" font-style="" opacity="1" y="24.375" transform="rotate(0)"><tspan id="SvgjsTspan1532" dy="16" x="227.5"><tspan id="SvgjsTspan1533" style="text-decoration:;">实例化：申请空间，使用默认值反射创建对象的过程</tspan></tspan></text></g></g><g id="SvgjsG1534"><path id="SvgjsPath1535" d="M716 60L766 60L766 60L813.4 60" stroke="#323232" stroke-width="2" fill="none" marker-end="url(#SvgjsMarker1536)"></path></g><g id="SvgjsG1538" transform="translate(817,28)"><path id="SvgjsPath1539" d="M 0 0L 165 0L 165 64L 0 64Z" stroke="rgba(50,50,50,1)" stroke-width="2" fill-opacity="1" fill="#ffffff"></path><g id="SvgjsG1540"><text id="SvgjsText1541" font-family="微软雅黑" text-anchor="middle" font-size="13px" width="145px" fill="#323232" font-weight="400" align="middle" lineHeight="125%" anchor="middle" family="微软雅黑" size="13px" weight="400" font-style="" opacity="1" y="12.875" transform="rotate(0)"><tspan id="SvgjsTspan1542" dy="16" x="82.5"><tspan id="SvgjsTspan1543" style="text-decoration:;">createBeanInstance</tspan></tspan><tspan id="SvgjsTspan1544" dy="16" x="82.5"><tspan id="SvgjsTspan1545" style="text-decoration:;">反射创建对象</tspan></tspan></text></g></g><g id="SvgjsG1546"><path id="SvgjsPath1547" d="M487.5 96L487.5 137.25L487.5 137.25L487.5 175.89999999999998" stroke="#323232" stroke-width="2" fill="none" marker-end="url(#SvgjsMarker1548)"></path></g><g id="SvgjsG1550" transform="translate(417.125,179.5)"><path id="SvgjsPath1551" d="M 0 0L 140.75 0L 140.75 29.5L 0 29.5Z" stroke="rgba(0,0,0,1)" stroke-width="2" fill-opacity="1" fill="#ffe0b2"></path><g id="SvgjsG1552"><text id="SvgjsText1553" font-family="微软雅黑" text-anchor="middle" font-size="13px" width="121px" fill="#323232" font-weight="400" align="middle" lineHeight="125%" anchor="middle" family="微软雅黑" size="13px" weight="400" font-style="" opacity="1" y="4.125" transform="rotate(0)"><tspan id="SvgjsTspan1554" dy="16" x="70.5"><tspan id="SvgjsTspan1555" style="text-decoration:;">自定义对象属性赋值</tspan></tspan></text></g></g><g id="SvgjsG1556"><path id="SvgjsPath1557" d="M558.875 194.25L687.4375 194.25L687.4375 194.25L813.4 194.25" stroke="#323232" stroke-width="2" fill="none" marker-end="url(#SvgjsMarker1558)"></path></g><g id="SvgjsG1560" transform="translate(817,159.25)"><path id="SvgjsPath1561" d="M 0 0L 165 0L 165 70L 0 70Z" stroke="rgba(50,50,50,1)" stroke-width="2" fill-opacity="1" fill="#ffffff"></path><g id="SvgjsG1562"><text id="SvgjsText1563" font-family="微软雅黑" text-anchor="middle" font-size="13px" width="145px" fill="#323232" font-weight="400" align="middle" lineHeight="125%" anchor="middle" family="微软雅黑" size="13px" weight="400" font-style="" opacity="1" y="15.875" transform="rotate(0)"><tspan id="SvgjsTspan1564" dy="16" x="82.5"><tspan id="SvgjsTspan1565" style="text-decoration:;">populateBean</tspan></tspan><tspan id="SvgjsTspan1566" dy="16" x="82.5"><tspan id="SvgjsTspan1567" style="text-decoration:;">set方法完成赋值操作</tspan></tspan></text></g></g><g id="SvgjsG1568"><path id="SvgjsPath1569" d="M487.5 210L487.5 227.5L487.5 227.5L487.5 242.39999999999998" stroke="#323232" stroke-width="2" fill="none" marker-end="url(#SvgjsMarker1570)"></path></g><g id="SvgjsG1572" transform="translate(417.75,246)"><path id="SvgjsPath1573" d="M 0 0L 139.5 0L 139.5 34L 0 34Z" stroke="rgba(50,50,50,1)" stroke-width="2" fill-opacity="1" fill="#ffe0b2"></path><g id="SvgjsG1574"><text id="SvgjsText1575" font-family="微软雅黑" text-anchor="middle" font-size="13px" width="120px" fill="#323232" font-weight="400" align="middle" lineHeight="125%" anchor="middle" family="微软雅黑" size="13px" weight="400" font-style="" opacity="1" y="6.375" transform="rotate(0)"><tspan id="SvgjsTspan1576" dy="16" x="70"><tspan id="SvgjsTspan1577" style="text-decoration:;">容器对象属性赋值</tspan></tspan></text></g></g><g id="SvgjsG1578" transform="translate(817,228)"><path id="SvgjsPath1579" d="M 0 0L 165 0L 165 70L 0 70Z" stroke="rgba(50,50,50,1)" stroke-width="2" fill-opacity="1" fill="#ffffff"></path><g id="SvgjsG1580"><text id="SvgjsText1581" font-family="微软雅黑" text-anchor="middle" font-size="13px" width="145px" fill="#323232" font-weight="400" align="middle" lineHeight="125%" anchor="middle" family="微软雅黑" size="13px" weight="400" font-style="" opacity="1" y="15.875" transform="rotate(0)"><tspan id="SvgjsTspan1582" dy="16" x="82.5"><tspan id="SvgjsTspan1583" style="text-decoration:;">populateBean</tspan></tspan><tspan id="SvgjsTspan1584" dy="16" x="82.5"><tspan id="SvgjsTspan1585" style="text-decoration:;">set方法完成赋值操作</tspan></tspan></text></g></g><g id="SvgjsG1586"><path id="SvgjsPath1587" d="M558.25 263L687.125 263L687.125 263L813.4 263" stroke="#323232" stroke-width="2" fill="none" marker-end="url(#SvgjsMarker1588)"></path></g><g id="SvgjsG1590" transform="translate(417.75,379)"><path id="SvgjsPath1591" d="M 0 0L 139.5 0L 139.5 34L 0 34Z" stroke="rgba(50,50,50,1)" stroke-width="2" fill-opacity="1" fill="#ffe0b2"></path><g id="SvgjsG1592"><text id="SvgjsText1593" font-family="微软雅黑" text-anchor="middle" font-size="13px" width="120px" fill="#323232" font-weight="400" align="middle" lineHeight="125%" anchor="middle" family="微软雅黑" size="13px" weight="400" font-style="" opacity="1" y="6.375" transform="rotate(0)"><tspan id="SvgjsTspan1594" dy="16" x="70"><tspan id="SvgjsTspan1595" style="text-decoration:;">执行前置处理方法</tspan></tspan></text></g></g><g id="SvgjsG1596"><path id="SvgjsPath1597" d="M487.5 281L487.5 329.5L487.5 329.5L487.5 375.4" stroke="#323232" stroke-width="2" fill="none" marker-end="url(#SvgjsMarker1598)"></path></g><g id="SvgjsG1600" transform="translate(417.75,550)"><path id="SvgjsPath1601" d="M 0 0L 139.5 0L 139.5 34L 0 34Z" stroke="rgba(50,50,50,1)" stroke-width="2" fill-opacity="1" fill="#ffe0b2"></path><g id="SvgjsG1602"><text id="SvgjsText1603" font-family="微软雅黑" text-anchor="middle" font-size="13px" width="120px" fill="#323232" font-weight="400" align="middle" lineHeight="125%" anchor="middle" family="微软雅黑" size="13px" weight="400" font-style="" opacity="1" y="6.375" transform="rotate(0)"><tspan id="SvgjsTspan1604" dy="16" x="70"><tspan id="SvgjsTspan1605" style="text-decoration:;">执行后置处理方法</tspan></tspan></text></g></g><g id="SvgjsG1606" transform="translate(817,444)"><path id="SvgjsPath1607" d="M 0 0L 165 0L 165 70L 0 70Z" stroke="rgba(50,50,50,1)" stroke-width="2" fill-opacity="1" fill="#ffffff"></path><g id="SvgjsG1608"><text id="SvgjsText1609" font-family="微软雅黑" text-anchor="middle" font-size="13px" width="145px" fill="#323232" font-weight="400" align="middle" lineHeight="125%" anchor="middle" family="微软雅黑" size="13px" weight="400" font-style="" opacity="1" y="15.875" transform="rotate(0)"><tspan id="SvgjsTspan1610" dy="16" x="82.5"><tspan id="SvgjsTspan1611" style="text-decoration:;">BeanPostProcessor</tspan></tspan><tspan id="SvgjsTspan1612" dy="16" x="82.5"><tspan id="SvgjsTspan1613" style="text-decoration:;">Bean 对象的扩展实现</tspan></tspan></text></g></g><g id="SvgjsG1614"><path id="SvgjsPath1615" d="M558.25 567L899.5 567L899.5 517.6" stroke="#323232" stroke-width="2" fill="none" marker-end="url(#SvgjsMarker1616)"></path></g><g id="SvgjsG1618"><path id="SvgjsPath1619" d="M983 479L1017.75 479L1017.75 479L1049.9 479" stroke="#323232" stroke-width="2" fill="none" marker-end="url(#SvgjsMarker1620)"></path><rect id="SvgjsRect1622" width="26" height="16" x="1003.45" y="471" fill="#ffffff"></rect><text id="SvgjsText1623" font-family="微软雅黑" text-anchor="middle" font-size="13px" width="26px" fill="#323232" font-weight="400" align="top" lineHeight="16px" anchor="middle" family="微软雅黑" size="13px" weight="400" font-style="" opacity="1" y="468.375" transform="rotate(0)"><tspan id="SvgjsTspan1624" dy="16" x="1016.45"><tspan id="SvgjsTspan1625" style="text-decoration:;">入口</tspan></tspan></text></g><g id="SvgjsG1626" transform="translate(1053.5,444)"><path id="SvgjsPath1627" d="M 0 0L 100 0L 100 70L 0 70Z" stroke="rgba(50,50,50,1)" stroke-width="2" fill-opacity="1" fill="#ffffff"></path><g id="SvgjsG1628"><text id="SvgjsText1629" font-family="微软雅黑" text-anchor="middle" font-size="13px" width="80px" fill="#323232" font-weight="400" align="middle" lineHeight="125%" anchor="middle" family="微软雅黑" size="13px" weight="400" font-style="" opacity="1" y="24.375" transform="rotate(0)"><tspan id="SvgjsTspan1630" dy="16" x="50"><tspan id="SvgjsTspan1631" style="text-decoration:;">AOP</tspan></tspan></text></g></g><g id="SvgjsG1632"><path id="SvgjsPath1633" d="M1154.5 479L1194 479L1194 479L1230.9 479" stroke="#323232" stroke-width="2" fill="none" marker-end="url(#SvgjsMarker1634)"></path></g><g id="SvgjsG1636" transform="translate(1234.5,444)"><path id="SvgjsPath1637" d="M 0 0L 100 0L 100 70L 0 70Z" stroke="rgba(50,50,50,1)" stroke-width="2" fill-opacity="1" fill="#ffffff"></path><g id="SvgjsG1638"><text id="SvgjsText1639" font-family="微软雅黑" text-anchor="middle" font-size="13px" width="80px" fill="#323232" font-weight="400" align="middle" lineHeight="125%" anchor="middle" family="微软雅黑" size="13px" weight="400" font-style="" opacity="1" y="7.875" transform="rotate(0)"><tspan id="SvgjsTspan1640" dy="16" x="50"><tspan id="SvgjsTspan1641" style="text-decoration:;">动态代理</tspan></tspan><tspan id="SvgjsTspan1642" dy="16" x="50"><tspan id="SvgjsTspan1643" style="text-decoration:;">jdk</tspan></tspan><tspan id="SvgjsTspan1644" dy="16" x="50"><tspan id="SvgjsTspan1645" style="text-decoration:;">cglib</tspan></tspan></text></g></g><g id="SvgjsG1646"><path id="SvgjsPath1647" d="M558.25 396L899.5 396L899.5 440.4" stroke="#323232" stroke-width="2" fill="none" marker-end="url(#SvgjsMarker1648)"></path></g><g id="SvgjsG1650"><path id="SvgjsPath1651" d="M487.5 414L487.5 428.5L487.5 428.5L487.5 440.4" stroke="#323232" stroke-width="2" fill="none" marker-end="url(#SvgjsMarker1652)"></path></g><g id="SvgjsG1654" transform="translate(437.5,444)"><path id="SvgjsPath1655" d="M 0 0L 100 0L 100 70L 0 70Z" stroke="rgba(50,50,50,1)" stroke-width="2" fill-opacity="1" fill="#c8e6c9"></path><g id="SvgjsG1656"><text id="SvgjsText1657" font-family="微软雅黑" text-anchor="middle" font-size="13px" width="80px" fill="#323232" font-weight="400" align="middle" lineHeight="125%" anchor="middle" family="微软雅黑" size="13px" weight="400" font-style="" opacity="1" y="15.875" transform="rotate(0)"><tspan id="SvgjsTspan1658" dy="16" x="50"><tspan id="SvgjsTspan1659" style="text-decoration:;">执行初始化方</tspan></tspan><tspan id="SvgjsTspan1660" dy="16" x="50"><tspan id="SvgjsTspan1661" style="text-decoration:;">法</tspan></tspan></text></g></g><g id="SvgjsG1662"><path id="SvgjsPath1663" d="M436.5 479L323.75 479L323.75 479L213.6 479" stroke="#323232" stroke-width="2" fill="none" marker-end="url(#SvgjsMarker1664)"></path></g><g id="SvgjsG1666" transform="translate(37,452)"><path id="SvgjsPath1667" d="M 0 0L 173 0L 173 54L 0 54Z" stroke="rgba(50,50,50,1)" stroke-width="2" fill-opacity="1" fill="#c8e6c9"></path><g id="SvgjsG1668"><text id="SvgjsText1669" font-family="微软雅黑" text-anchor="middle" font-size="13px" width="153px" fill="#323232" font-weight="400" align="middle" lineHeight="125%" anchor="middle" family="微软雅黑" size="13px" weight="400" font-style="" opacity="1" y="16.375" transform="rotate(0)"><tspan id="SvgjsTspan1670" dy="16" x="86.5"><tspan id="SvgjsTspan1671" style="text-decoration:;">invokeInitMethods</tspan></tspan></text></g></g><g id="SvgjsG1672"><path id="SvgjsPath1673" d="M487.5 515L487.5 532L487.5 532L487.5 546.4" stroke="#323232" stroke-width="2" fill="none" marker-end="url(#SvgjsMarker1674)"></path></g><g id="SvgjsG1676"><path id="SvgjsPath1677" d="M123.5 507L123.5 538L123.5 538L123.5 566.4" stroke="#323232" stroke-width="2" fill="none" marker-end="url(#SvgjsMarker1678)"></path></g><g id="SvgjsG1680" transform="translate(40.5,570)"><path id="SvgjsPath1681" d="M 0 28L 83 0L 166 28L 83 56Z" stroke="rgba(50,50,50,1)" stroke-width="2" fill-opacity="1" fill="#c8e6c9"></path><g id="SvgjsG1682"><text id="SvgjsText1683" font-family="微软雅黑" text-anchor="middle" font-size="13px" width="146px" fill="#323232" font-weight="400" align="middle" lineHeight="125%" anchor="middle" family="微软雅黑" size="13px" weight="400" font-style="" opacity="1" y="9.155000000000001" transform="rotate(0)"><tspan id="SvgjsTspan1684" dy="16" x="83"><tspan id="SvgjsTspan1685" style="text-decoration:;">检测是否实现 </tspan></tspan><tspan id="SvgjsTspan1686" dy="16" x="83"><tspan id="SvgjsTspan1687" style="text-decoration:;">InitializingBean接口</tspan></tspan></text></g></g><g id="SvgjsG1688"><path id="SvgjsPath1689" d="M123.5 627L123.5 659.5L123.5 659.5L123.5 689.4" stroke="#323232" stroke-width="2" fill="none" marker-end="url(#SvgjsMarker1690)"></path><rect id="SvgjsRect1692" width="13" height="16" x="117" y="650.2" fill="#ffffff"></rect><text id="SvgjsText1693" font-family="微软雅黑" text-anchor="middle" font-size="13px" width="13px" fill="#323232" font-weight="400" align="top" lineHeight="16px" anchor="middle" family="微软雅黑" size="13px" weight="400" font-style="" opacity="1" y="647.575" transform="rotate(0)"><tspan id="SvgjsTspan1694" dy="16" x="123.5"><tspan id="SvgjsTspan1695" style="text-decoration:;">是</tspan></tspan></text></g><g id="SvgjsG1696" transform="translate(25,693)"><path id="SvgjsPath1697" d="M 0 0L 197 0L 197 45L 0 45Z" stroke="rgba(50,50,50,1)" stroke-width="2" fill-opacity="1" fill="#c8e6c9"></path><g id="SvgjsG1698"><text id="SvgjsText1699" font-family="微软雅黑" text-anchor="middle" font-size="13px" width="177px" fill="#323232" font-weight="400" align="middle" lineHeight="125%" anchor="middle" family="微软雅黑" size="13px" weight="400" font-style="" opacity="1" y="11.875" transform="rotate(0)"><tspan id="SvgjsTspan1700" dy="16" x="98.5"><tspan id="SvgjsTspan1701" style="text-decoration:;">调用afterPropertiesSet 方法</tspan></tspan></text></g></g><g id="SvgjsG1702"><path id="SvgjsPath1703" d="M123.5 739L123.5 771.5L123.5 771.5L123.5 801.4" stroke="#323232" stroke-width="2" fill="none" marker-end="url(#SvgjsMarker1704)"></path></g><g id="SvgjsG1706" transform="translate(29,805)"><path id="SvgjsPath1707" d="M 0 0L 189 0L 189 74L 0 74Z" stroke="rgba(50,50,50,1)" stroke-width="2" fill-opacity="1" fill="#c8e6c9"></path><g id="SvgjsG1708"><text id="SvgjsText1709" font-family="微软雅黑" text-anchor="start" font-size="13px" width="169px" fill="#323232" font-weight="400" align="middle" lineHeight="125%" anchor="start" family="微软雅黑" size="13px" weight="400" font-style="" opacity="1" y="1.875" transform="rotate(0)"><tspan id="SvgjsTspan1710" dy="16" x="10"><tspan id="SvgjsTspan1711" style="text-decoration:;">自定义进行操作：</tspan></tspan><tspan id="SvgjsTspan1712" dy="16" x="10"><tspan id="SvgjsTspan1713" style="text-decoration:;">设置属性</tspan></tspan><tspan id="SvgjsTspan1714" dy="16" x="10"><tspan id="SvgjsTspan1715" style="text-decoration:;">调用方法</tspan></tspan><tspan id="SvgjsTspan1716" dy="16" x="10"><tspan id="SvgjsTspan1717" style="text-decoration:;">添加任意处理逻辑</tspan></tspan></text></g></g><g id="SvgjsG1718"><path id="SvgjsPath1719" d="M487.5 585L487.5 625L487.5 625L487.5 662.4" stroke="#323232" stroke-width="2" fill="none" marker-end="url(#SvgjsMarker1720)"></path></g><g id="SvgjsG1722" transform="translate(414,666)"><path id="SvgjsPath1723" d="M 0 0L 147 0L 147 34L 0 34Z" stroke="rgba(50,50,50,1)" stroke-width="2" fill-opacity="1" fill="#e1bee7"></path><g id="SvgjsG1724"><text id="SvgjsText1725" font-family="微软雅黑" text-anchor="middle" font-size="13px" width="127px" fill="#323232" font-weight="400" align="middle" lineHeight="125%" anchor="middle" family="微软雅黑" size="13px" weight="400" font-style="" opacity="1" y="6.375" transform="rotate(0)"><tspan id="SvgjsTspan1726" dy="16" x="73.5"><tspan id="SvgjsTspan1727" style="text-decoration:;">使用Bean对象</tspan></tspan></text></g></g><g id="SvgjsG1728"><path id="SvgjsPath1729" d="M487.5 701L487.5 734.5L487.5 734.5L487.5 765.4" stroke="#323232" stroke-width="2" fill="none" marker-end="url(#SvgjsMarker1730)"></path></g><g id="SvgjsG1732" transform="translate(417.75,769)"><path id="SvgjsPath1733" d="M 0 0L 139.5 0L 139.5 32L 0 32Z" stroke="rgba(50,50,50,1)" stroke-width="2" fill-opacity="1" fill="#bbdefb"></path><g id="SvgjsG1734"><text id="SvgjsText1735" font-family="微软雅黑" text-anchor="middle" font-size="13px" width="120px" fill="#323232" font-weight="400" align="middle" lineHeight="125%" anchor="middle" family="微软雅黑" size="13px" weight="400" font-style="" opacity="1" y="5.375" transform="rotate(0)"><tspan id="SvgjsTspan1736" dy="16" x="70"><tspan id="SvgjsTspan1737" style="text-decoration:;">销毁Bean对象</tspan></tspan></text></g></g><g id="SvgjsG1738" transform="translate(239,325.5)"><path id="SvgjsPath1739" d="M 0 8.3325L 558.375 8.3325L 558.375 0L 571 12.625L 558.375 25.25L 558.375 16.9175L 0 16.9175L 0 8.3325Z" stroke="rgba(50,50,50,1)" stroke-width="2" fill-opacity="1" fill="#ffffff"></path><g id="SvgjsG1740"><text id="SvgjsText1741" font-family="微软雅黑" text-anchor="middle" font-size="13px" width="571px" fill="#323232" font-weight="400" align="middle" lineHeight="125%" anchor="middle" family="微软雅黑" size="13px" weight="400" font-style="" opacity="1" y="2" transform="rotate(0)"></text></g></g><g id="SvgjsG1742" transform="translate(781,314.25)"><path id="SvgjsPath1743" d="M 0 0L 236 0L 252 16L 252 44L 0 44L 0 0Z" stroke="none" fill-opacity="1" fill="#ffffaa"></path><path id="SvgjsPath1744" d="M 236 0L 236 16L 252 16Z" stroke="none" fill-opacity="1" fill="#cdcdcd"></path><path id="SvgjsPath1745" d="M 0 0L 236 0L 252 16L 252 44L 0 44L 0 0Z" stroke="none" fill="none"></path><g id="SvgjsG1746"><text id="SvgjsText1747" font-family="微软雅黑" text-anchor="middle" font-size="13px" width="232px" fill="#323232" font-weight="400" align="middle" lineHeight="125%" anchor="middle" family="微软雅黑" size="13px" weight="400" font-style="" opacity="1" y="2.875" transform="rotate(0)"><tspan id="SvgjsTspan1748" dy="16" x="126"><tspan id="SvgjsTspan1749" style="text-decoration:;">理论上到这里对象已经可以拿来使用</tspan></tspan><tspan id="SvgjsTspan1750" dy="16" x="126"><tspan id="SvgjsTspan1751" style="text-decoration:;">了，但是Spring 要考虑扩展性</tspan></tspan></text></g></g></svg>