<svg id="SvgjsSvg1603" width="1054" height="574.75" xmlns="http://www.w3.org/2000/svg" version="1.1" xmlns:xlink="http://www.w3.org/1999/xlink" xmlns:svgjs="http://svgjs.com/svgjs"><defs id="SvgjsDefs1604"><marker id="SvgjsMarker1644" markerWidth="14" markerHeight="10" refX="10" refY="5" viewBox="0 0 14 10" orient="auto" markerUnits="userSpaceOnUse" stroke-dasharray="0,0"><path id="SvgjsPath1645" d="M0,0 L14,5 L0,10 L0,0" fill="#323232" stroke="#323232" stroke-width="1"></path></marker><marker id="SvgjsMarker1658" markerWidth="14" markerHeight="10" refX="10" refY="5" viewBox="0 0 14 10" orient="auto" markerUnits="userSpaceOnUse" stroke-dasharray="0,0"><path id="SvgjsPath1659" d="M0,0 L14,5 L0,10 L0,0" fill="#323232" stroke="#323232" stroke-width="1"></path></marker><marker id="SvgjsMarker1662" markerWidth="14" markerHeight="10" refX="10" refY="5" viewBox="0 0 14 10" orient="auto" markerUnits="userSpaceOnUse" stroke-dasharray="0,0"><path id="SvgjsPath1663" d="M0,0 L14,5 L0,10 L0,0" fill="#323232" stroke="#323232" stroke-width="1"></path></marker><marker id="SvgjsMarker1678" markerWidth="14" markerHeight="10" refX="10" refY="5" viewBox="0 0 14 10" orient="auto" markerUnits="userSpaceOnUse" stroke-dasharray="0,0"><path id="SvgjsPath1679" d="M0,0 L14,5 L0,10 L0,0" fill="#323232" stroke="#323232" stroke-width="1"></path></marker><marker id="SvgjsMarker1698" markerWidth="14" markerHeight="10" refX="10" refY="5" viewBox="0 0 14 10" orient="auto" markerUnits="userSpaceOnUse" stroke-dasharray="0,0"><path id="SvgjsPath1699" d="M0,0 L14,5 L0,10 L0,0" fill="#323232" stroke="#323232" stroke-width="1"></path></marker><marker id="SvgjsMarker1702" markerWidth="14" markerHeight="10" refX="10" refY="5" viewBox="0 0 14 10" orient="auto" markerUnits="userSpaceOnUse" stroke-dasharray="0,0"><path id="SvgjsPath1703" d="M0,0 L14,5 L0,10 L0,0" fill="#323232" stroke="#323232" stroke-width="1"></path></marker><marker id="SvgjsMarker1730" markerWidth="14" markerHeight="10" refX="10" refY="5" viewBox="0 0 14 10" orient="auto" markerUnits="userSpaceOnUse" stroke-dasharray="0,0"><path id="SvgjsPath1731" d="M0,0 L14,5 L0,10 L0,0" fill="#323232" stroke="#323232" stroke-width="1"></path></marker><marker id="SvgjsMarker1734" markerWidth="14" markerHeight="10" refX="10" refY="5" viewBox="0 0 14 10" orient="auto" markerUnits="userSpaceOnUse" stroke-dasharray="0,0"><path id="SvgjsPath1735" d="M0,0 L14,5 L0,10 L0,0" fill="#323232" stroke="#323232" stroke-width="1"></path></marker><marker id="SvgjsMarker1738" markerWidth="14" markerHeight="10" refX="10" refY="5" viewBox="0 0 14 10" orient="auto" markerUnits="userSpaceOnUse" stroke-dasharray="0,0"><path id="SvgjsPath1739" d="M0,0 L14,5 L0,10 L0,0" fill="#323232" stroke="#323232" stroke-width="1"></path></marker><marker id="SvgjsMarker1748" markerWidth="14" markerHeight="10" refX="10" refY="5" viewBox="0 0 14 10" orient="auto" markerUnits="userSpaceOnUse" stroke-dasharray="0,0"><path id="SvgjsPath1749" d="M0,0 L14,5 L0,10 L0,0" fill="#323232" stroke="#323232" stroke-width="1"></path></marker></defs><rect id="svgbackgroundid" width="1054" height="574.75" fill="#ffffff"></rect><g id="SvgjsG1606" transform="translate(309,68.75)"><path id="SvgjsPath1607" d="M 0 0L 720 0L 720 480.75L 0 480.75Z" stroke="rgba(50,50,50,1)" stroke-width="2" fill-opacity="1" fill="#f5f5f5"></path><g id="SvgjsG1608"><text id="SvgjsText1609" font-family="微软雅黑" text-anchor="start" font-size="13px" width="700px" fill="#323232" font-weight="700" align="top" lineHeight="125%" anchor="start" family="微软雅黑" size="13px" weight="700" font-style="" opacity="1" y="-2.625" transform="rotate(0)"><tspan id="SvgjsTspan1610" dy="16" x="10"><tspan id="SvgjsTspan1611" style="text-decoration:;">Spring 容器</tspan></tspan></text></g></g><g id="SvgjsG1612" transform="translate(793,119)"><path id="SvgjsPath1613" d="M 0 0L 212 0L 212 386L 0 386Z" stroke="rgba(50,50,50,1)" stroke-width="2" fill-opacity="1" fill="#ffe0b2"></path><g id="SvgjsG1614"><text id="SvgjsText1615" font-family="微软雅黑" text-anchor="middle" font-size="13px" width="192px" fill="#323232" font-weight="400" align="middle" lineHeight="125%" anchor="middle" family="微软雅黑" size="13px" weight="400" font-style="" opacity="1" y="182.375" transform="rotate(0)"></text></g></g><g id="SvgjsG1616" transform="translate(25,351)"><path id="SvgjsPath1617" d="M 0 0L 100 0L 100 70L 0 70Z" stroke="rgba(50,50,50,1)" stroke-width="2" fill-opacity="1" fill="#bbdefb"></path><g id="SvgjsG1618"><text id="SvgjsText1619" font-family="微软雅黑" text-anchor="middle" font-size="13px" width="80px" fill="#323232" font-weight="400" align="middle" lineHeight="125%" anchor="middle" family="微软雅黑" size="13px" weight="400" font-style="" opacity="1" y="24.375" transform="rotate(0)"><tspan id="SvgjsTspan1620" dy="16" x="50"><tspan id="SvgjsTspan1621" style="text-decoration:;">XML</tspan></tspan></text></g></g><g id="SvgjsG1622" transform="translate(25,421)"><path id="SvgjsPath1623" d="M 0 0L 100 0L 100 70L 0 70Z" stroke="rgba(50,50,50,1)" stroke-width="2" fill-opacity="1" fill="#bbdefb"></path><g id="SvgjsG1624"><text id="SvgjsText1625" font-family="微软雅黑" text-anchor="middle" font-size="13px" width="80px" fill="#323232" font-weight="400" align="middle" lineHeight="125%" anchor="middle" family="微软雅黑" size="13px" weight="400" font-style="" opacity="1" y="24.375" transform="rotate(0)"><tspan id="SvgjsTspan1626" dy="16" x="50"><tspan id="SvgjsTspan1627" style="text-decoration:;">注解</tspan></tspan></text></g></g><g id="SvgjsG1628" transform="translate(25,298.5)"><path id="SvgjsPath1629" d="M 0 0L 100 0L 100 45.5L 0 45.5Z" stroke="none" fill="none"></path><g id="SvgjsG1630"><text id="SvgjsText1631" font-family="微软雅黑" text-anchor="middle" font-size="13px" width="100px" fill="#323232" font-weight="400" align="middle" lineHeight="125%" anchor="middle" family="微软雅黑" size="13px" weight="400" font-style="" opacity="1" y="12.125" transform="rotate(0)"><tspan id="SvgjsTspan1632" dy="16" x="50"><tspan id="SvgjsTspan1633" style="text-decoration:;">Bean 定义信息</tspan></tspan></text></g></g><g id="SvgjsG1634" transform="translate(390,384.75)"><path id="SvgjsPath1635" d="M 0 0L 130 0L 130 72.5L 0 72.5Z" stroke="rgba(50,50,50,1)" stroke-width="2" fill-opacity="1" fill="#fff9c4"></path><g id="SvgjsG1636"><text id="SvgjsText1637" font-family="微软雅黑" text-anchor="middle" font-size="13px" width="110px" fill="#323232" font-weight="400" align="middle" lineHeight="125%" anchor="middle" family="微软雅黑" size="13px" weight="400" font-style="" opacity="1" y="17.125" transform="rotate(0)"><tspan id="SvgjsTspan1638" dy="16" x="65"><tspan id="SvgjsTspan1639" style="text-decoration:;">BeanDefinition</tspan></tspan><tspan id="SvgjsTspan1640" dy="16" x="65"><tspan id="SvgjsTspan1641" style="text-decoration:;">Bean定义信息</tspan></tspan></text></g></g><g id="SvgjsG1642"><path id="SvgjsPath1643" d="M126 456L154 456L154 456L179.4 456" stroke="#323232" stroke-width="2" fill="none" marker-end="url(#SvgjsMarker1644)"></path></g><g id="SvgjsG1646" transform="translate(183,351)"><path id="SvgjsPath1647" d="M 0 0L 98 0L 98 140L 0 140Z" stroke="rgba(50,50,50,1)" stroke-width="2" fill-opacity="1" fill="#c8e6c9"></path><g id="SvgjsG1648"><text id="SvgjsText1649" font-family="微软雅黑" text-anchor="middle" font-size="13px" width="78px" fill="#323232" font-weight="400" align="middle" lineHeight="125%" anchor="middle" family="微软雅黑" size="13px" weight="400" font-style="" opacity="1" y="42.875" transform="rotate(0)"><tspan id="SvgjsTspan1650" dy="16" x="49"><tspan id="SvgjsTspan1651" style="text-decoration:;">接口</tspan></tspan><tspan id="SvgjsTspan1652" dy="16" x="49"><tspan id="SvgjsTspan1653" style="text-decoration:;"> </tspan></tspan><tspan id="SvgjsTspan1654" dy="16" x="49"><tspan id="SvgjsTspan1655" style="text-decoration:;">约束规范</tspan></tspan></text></g></g><g id="SvgjsG1656"><path id="SvgjsPath1657" d="M126 386L154 386L154 386L179.4 386" stroke="#323232" stroke-width="2" fill="none" marker-end="url(#SvgjsMarker1658)"></path></g><g id="SvgjsG1660"><path id="SvgjsPath1661" d="M282 421L335.5 421L335.5 421L386.4 421" stroke="#323232" stroke-width="2" fill="none" marker-end="url(#SvgjsMarker1662)"></path></g><g id="SvgjsG1664" transform="translate(51.5,211)"><path id="SvgjsPath1665" d="M 0 0L 203.5 0L 219.5 16L 219.5 83.5L 0 83.5L 0 0Z" stroke="none" fill-opacity="1" fill="#ffffaa"></path><path id="SvgjsPath1666" d="M 203.5 0L 203.5 16L 219.5 16Z" stroke="none" fill-opacity="1" fill="#cdcdcd"></path><path id="SvgjsPath1667" d="M 0 0L 203.5 0L 219.5 16L 219.5 83.5L 0 83.5L 0 0Z" stroke="none" fill="none"></path><g id="SvgjsG1668"><text id="SvgjsText1669" font-family="微软雅黑" text-anchor="start" font-size="13px" width="200px" fill="#323232" font-weight="400" align="middle" lineHeight="125%" anchor="start" family="微软雅黑" size="13px" weight="400" font-style="" opacity="1" y="14.625" transform="rotate(0)"><tspan id="SvgjsTspan1670" dy="16" x="10"><tspan id="SvgjsTspan1671" style="text-decoration:;">BeanDefinitionReader：读取配</tspan></tspan><tspan id="SvgjsTspan1672" dy="16" x="10"><tspan id="SvgjsTspan1673" style="text-decoration:;">置文件内容，将其转换为 IOC 容器</tspan></tspan><tspan id="SvgjsTspan1674" dy="16" x="10"><tspan id="SvgjsTspan1675" style="text-decoration:;">中的 BeanDefinition</tspan></tspan></text></g></g><g id="SvgjsG1676"><path id="SvgjsPath1677" d="M521 421L684.5 421L684.5 182.5L845.4 182.5" stroke-dasharray="3,3" stroke="#323232" stroke-width="2" fill="none" marker-end="url(#SvgjsMarker1678)"></path><rect id="SvgjsRect1680" width="26" height="16" x="671.5" y="295.05" fill="#ffffff"></rect><text id="SvgjsText1681" font-family="微软雅黑" text-anchor="middle" font-size="13px" width="26px" fill="#323232" font-weight="400" align="top" lineHeight="16px" anchor="middle" family="微软雅黑" size="13px" weight="400" font-style="" opacity="1" y="292.425" transform="rotate(0)"><tspan id="SvgjsTspan1682" dy="16" x="684.5"><tspan id="SvgjsTspan1683" style="text-decoration:;">反射</tspan></tspan></text></g><g id="SvgjsG1684" transform="translate(849,147.625)"><path id="SvgjsPath1685" d="M 0 0L 107 0L 107 69.75L 0 69.75Z" stroke="rgba(50,50,50,1)" stroke-width="2" fill-opacity="1" fill="#c8e6c9"></path><g id="SvgjsG1686"><text id="SvgjsText1687" font-family="微软雅黑" text-anchor="middle" font-size="13px" width="87px" fill="#323232" font-weight="400" align="middle" lineHeight="125%" anchor="middle" family="微软雅黑" size="13px" weight="400" font-style="" opacity="1" y="24.25" transform="rotate(0)"><tspan id="SvgjsTspan1688" dy="16" x="53.5"><tspan id="SvgjsTspan1689" style="text-decoration:;">创建Bean对象</tspan></tspan></text></g></g><g id="SvgjsG1690" transform="translate(849,274.25)"><path id="SvgjsPath1691" d="M 0 0L 107 0L 107 69.75L 0 69.75Z" stroke="rgba(50,50,50,1)" stroke-width="2" fill-opacity="1" fill="#c8e6c9"></path><g id="SvgjsG1692"><text id="SvgjsText1693" font-family="微软雅黑" text-anchor="middle" font-size="13px" width="87px" fill="#323232" font-weight="400" align="middle" lineHeight="125%" anchor="middle" family="微软雅黑" size="13px" weight="400" font-style="" opacity="1" y="24.25" transform="rotate(0)"><tspan id="SvgjsTspan1694" dy="16" x="53.5"><tspan id="SvgjsTspan1695" style="text-decoration:;">使用Bean对象</tspan></tspan></text></g></g><g id="SvgjsG1696"><path id="SvgjsPath1697" d="M902.5 218.375L902.5 245.8125L902.5 245.8125L902.5 270.65" stroke="#323232" stroke-width="2" fill="none" marker-end="url(#SvgjsMarker1698)"></path></g><g id="SvgjsG1700"><path id="SvgjsPath1701" d="M902.5 345L902.5 372.4375L902.5 372.4375L902.5 397.275" stroke="#323232" stroke-width="2" fill="none" marker-end="url(#SvgjsMarker1702)"></path></g><g id="SvgjsG1704" transform="translate(849,400.875)"><path id="SvgjsPath1705" d="M 0 0L 107 0L 107 68L 0 68Z" stroke="rgba(50,50,50,1)" stroke-width="2" fill-opacity="1" fill="#c8e6c9"></path><g id="SvgjsG1706"><text id="SvgjsText1707" font-family="微软雅黑" text-anchor="middle" font-size="13px" width="87px" fill="#323232" font-weight="400" align="middle" lineHeight="125%" anchor="middle" family="微软雅黑" size="13px" weight="400" font-style="" opacity="1" y="23.375" transform="rotate(0)"><tspan id="SvgjsTspan1708" dy="16" x="53.5"><tspan id="SvgjsTspan1709" style="text-decoration:;">销毁Bean对象</tspan></tspan></text></g></g><g id="SvgjsG1710" transform="translate(594,25)"><path id="SvgjsPath1711" d="M 0 0L 100 0L 100 70L 0 70Z" stroke="rgba(50,50,50,1)" stroke-width="2" fill-opacity="1" fill="#e1bee7"></path><g id="SvgjsG1712"><text id="SvgjsText1713" font-family="微软雅黑" text-anchor="middle" font-size="13px" width="80px" fill="#323232" font-weight="400" align="middle" lineHeight="125%" anchor="middle" family="微软雅黑" size="13px" weight="400" font-style="" opacity="1" y="24.375" transform="rotate(0)"><tspan id="SvgjsTspan1714" dy="16" x="50"><tspan id="SvgjsTspan1715" style="text-decoration:;">BeanFactory</tspan></tspan></text></g></g><g id="SvgjsG1716" transform="translate(362,314)"><path id="SvgjsPath1717" d="M 0 0L 186 0L 186 30L 0 30Z" stroke="rgba(50,50,50,1)" stroke-width="2" fill-opacity="1" fill="#fff9c4"></path><g id="SvgjsG1718"><text id="SvgjsText1719" font-family="微软雅黑" text-anchor="middle" font-size="13px" width="166px" fill="#323232" font-weight="400" align="middle" lineHeight="125%" anchor="middle" family="微软雅黑" size="13px" weight="400" font-style="" opacity="1" y="4.375" transform="rotate(0)"><tspan id="SvgjsTspan1720" dy="16" x="93"><tspan id="SvgjsTspan1721" style="text-decoration:;">BeanFactoryPostProcessor</tspan></tspan></text></g></g><g id="SvgjsG1722" transform="translate(362,243.25)"><path id="SvgjsPath1723" d="M 0 0L 186 0L 186 30L 0 30Z" stroke="rgba(50,50,50,1)" stroke-width="2" fill-opacity="1" fill="#fff9c4"></path><g id="SvgjsG1724"><text id="SvgjsText1725" font-family="微软雅黑" text-anchor="middle" font-size="13px" width="166px" fill="#323232" font-weight="400" align="middle" lineHeight="125%" anchor="middle" family="微软雅黑" size="13px" weight="400" font-style="" opacity="1" y="4.375" transform="rotate(0)"><tspan id="SvgjsTspan1726" dy="16" x="93"><tspan id="SvgjsTspan1727" style="text-decoration:;">BeanFactoryPostProcessor</tspan></tspan></text></g></g><g id="SvgjsG1728"><path id="SvgjsPath1729" d="M455 383.75L455 364.375L455 364.375L455 347.6" stroke="#323232" stroke-width="2" fill="none" marker-end="url(#SvgjsMarker1730)"></path></g><g id="SvgjsG1732"><path id="SvgjsPath1733" d="M455 313L455 293.625L455 293.625L455 276.85" stroke="#323232" stroke-width="2" fill="none" marker-end="url(#SvgjsMarker1734)"></path></g><g id="SvgjsG1736"><path id="SvgjsPath1737" d="M455 242.25L455 222.875L455 222.875L455 206.1" stroke="#323232" stroke-width="2" fill="none" marker-end="url(#SvgjsMarker1738)"></path></g><g id="SvgjsG1740" transform="translate(405,162.5)"><path id="SvgjsPath1741" d="M 0 0L 100 0L 100 40L 0 40Z" stroke="rgba(50,50,50,1)" stroke-width="2" fill-opacity="1" fill="#ffcdd2"></path><g id="SvgjsG1742"><text id="SvgjsText1743" font-family="微软雅黑" text-anchor="middle" font-size="13px" width="80px" fill="#323232" font-weight="400" align="middle" lineHeight="125%" anchor="middle" family="微软雅黑" size="13px" weight="400" font-style="" opacity="1" y="9.375" transform="rotate(0)"><tspan id="SvgjsTspan1744" dy="16" x="50"><tspan id="SvgjsTspan1745" style="text-decoration:;">完整对象</tspan></tspan></text></g></g><g id="SvgjsG1746"><path id="SvgjsPath1747" d="M506 182.5L677 182.5L677 182.5L845.4 182.5" stroke="#323232" stroke-width="2" fill="none" marker-end="url(#SvgjsMarker1748)"></path></g></svg>